<svg xmlns="http://www.w3.org/2000/svg" width="420.181" height="420.182" viewBox="0 0 420.181 420.182">
  <g id="cake-pop-dark" transform="translate(0 0)">
    <path id="Path_1" data-name="Path 1" d="M314.7,151.731a28.751,28.751,0,0,0,7.391,56.516,28.747,28.747,0,1,0-7.391-56.516Zm15.009,32.133a8.743,8.743,0,1,1,.873-6.635A8.688,8.688,0,0,1,329.71,183.864Z" fill="#6e0608"/>
    <path id="Path_2" data-name="Path 2" d="M405.5,169.252a145.532,145.532,0,0,0,.055-19.877,28.755,28.755,0,0,0-14.252-53.789,144,144,0,0,0-10.019-17.371,28.776,28.776,0,0,0-4.519-34.8h0a28.778,28.778,0,0,0-34.8-4.519,144.058,144.058,0,0,0-17.371-10.019,28.751,28.751,0,0,0-53.789-14.252,145.534,145.534,0,0,0-19.877.055,28.754,28.754,0,0,0-53.814,14.6,144.911,144.911,0,0,0-76.715,96.92,10,10,0,0,0,2.779,9.431c1.32,1.281,2.626,2.445,3.92,3.506a135.554,135.554,0,0,0,21.664,95.52L7.6,375.809a26,26,0,0,0,36.77,36.77L185.531,271.42a135.532,135.532,0,0,0,95.522,21.663c1.061,1.293,2.225,2.6,3.506,3.92a9.993,9.993,0,0,0,9.431,2.778,144.9,144.9,0,0,0,96.919-76.715,28.75,28.75,0,0,0,14.6-53.814ZM349.748,58.119c.069-.078.139-.157.206-.237.1-.111.2-.221.312-.327a8.743,8.743,0,0,1,12.362,0h0a8.744,8.744,0,0,1,0,12.363c-.1.1-.2.2-.308.293s-.19.163-.282.246a8.742,8.742,0,0,1-12.29-12.338ZM287.211,27.363c.031-.147.059-.3.084-.447s.066-.289.1-.434a8.741,8.741,0,1,1,16.887,4.525c-.032.118-.066.235-.1.353-.06.159-.114.32-.165.48a8.741,8.741,0,0,1-16.807-4.477Zm-68.917-2.988a8.741,8.741,0,0,1,16.013,2.108q.07.266.125.531c.018.115.04.229.063.344a8.743,8.743,0,0,1-16.789,4.532c-.033-.1-.069-.195-.107-.292-.066-.193-.126-.391-.18-.59A8.687,8.687,0,0,1,218.294,24.375ZM30.231,398.436a6,6,0,1,1-8.485-8.485l139.48-139.48q2.022,2.208,4.149,4.336t4.336,4.149ZM179.518,240.664A115.536,115.536,0,0,1,146.077,149c3.217.888,6.25,1.436,9.065,1.945,7.919,1.432,14.173,2.563,22.14,10.529s9.091,14.217,10.517,22.132c1.632,9.059,3.664,20.333,16.058,32.728s23.667,14.425,32.726,16.057c7.915,1.426,14.167,2.552,22.131,10.517s9.1,14.22,10.528,22.138c.509,2.814,1.058,5.848,1.945,9.064A115.5,115.5,0,0,1,179.518,240.664Zm169.857,6.364a124.3,124.3,0,0,1-54.1,31.779c-4.278-5.842-5.22-11.049-6.354-17.323-1.638-9.059-3.676-20.331-16.066-32.723s-23.668-14.425-32.727-16.058c-7.915-1.426-14.167-2.552-22.131-10.516s-9.09-14.216-10.517-22.132c-1.632-9.059-3.664-20.333-16.059-32.728S167.757,132.9,158.7,131.26c-6.275-1.135-11.483-2.076-17.326-6.355a124.981,124.981,0,0,1,63.1-76.945,28.753,28.753,0,0,0,49.545-13.442,126.019,126.019,0,0,1,13.647-.047,28.78,28.78,0,0,0,49.825,13.2,124.182,124.182,0,0,1,11.758,6.781,28.77,28.77,0,0,0,36.488,36.494,124.3,124.3,0,0,1,6.771,11.742,28.781,28.781,0,0,0,13.2,49.826,125.507,125.507,0,0,1-.047,13.647,28.77,28.77,0,0,0-13.442,49.545A124.16,124.16,0,0,1,349.375,247.028Zm50.505-50.447a8.741,8.741,0,0,1-10.706,6.181c-.189-.051-.374-.106-.557-.169-.119-.046-.238-.089-.357-.13a8.743,8.743,0,0,1,4.564-16.777c.115.023.23.045.346.063q.266.054.53.125A8.753,8.753,0,0,1,399.88,196.581Zm-6.182-63.8c-.159.043-.317.081-.478.114-.12.021-.24.043-.358.067a8.743,8.743,0,0,1-4.459-16.825c.119-.038.236-.079.354-.122.138-.044.276-.084.416-.122a8.742,8.742,0,0,1,4.525,16.888Z" fill="#6e0608"/>
    <path id="Path_3" data-name="Path 3" d="M248.127,70.28a28.742,28.742,0,1,0,20.323,35.2A28.554,28.554,0,0,0,248.127,70.28Zm1.005,30.025a8.74,8.74,0,1,1-.873-6.634A8.751,8.751,0,0,1,249.132,100.305Z" fill="#6e0608"/>
    <path id="Path_4" data-name="Path 4" d="M327.979,132.849a28.74,28.74,0,1,0-20.323,8.418A28.547,28.547,0,0,0,327.979,132.849Zm-29.064-20.324a8.742,8.742,0,1,1,2.56,6.181A8.682,8.682,0,0,1,298.915,112.525Z" fill="#6e0608"/>
  </g>
</svg>
