<svg xmlns="http://www.w3.org/2000/svg" width="512" height="288" viewBox="0 0 512 288">
  <g id="croissant" transform="translate(0)">
    <path id="Path_5" data-name="Path 5" d="M500.5,217H487.258c11.727-11.254,17.531-25.137,16.012-39.652-2.777-26.5-29.637-53.316-53.5-72.23,2.215-5.32,3.422-8.461,3.488-8.629a7.5,7.5,0,0,0-1.316-7.578c-26.027-30.281-65.227-46.539-89.719-54.254.348-3.438.527-5.383.539-5.5a7.5,7.5,0,0,0-3.465-7.039C357.875,21.219,323.656.133,255.985,0,188.344.133,154.126,21.219,152.7,22.117a7.5,7.5,0,0,0-3.469,7.039c.012.117.2,2.063.543,5.5-24.5,7.727-63.711,23.992-89.723,54.254a7.506,7.506,0,0,0-1.312,7.578c.066.168,1.273,3.309,3.484,8.629-23.855,18.914-50.715,45.738-53.484,72.234C7.219,191.871,12.9,205.754,24.4,217H11.5A11.515,11.515,0,0,0,0,228.5,33.537,33.537,0,0,0,33.5,262H88.543A27.533,27.533,0,0,0,116,288H396a27.533,27.533,0,0,0,27.457-26H478.5A33.537,33.537,0,0,0,512,228.5,11.515,11.515,0,0,0,500.5,217ZM437.57,95.348c-.926,2.289-2.219,5.422-3.84,9.211-6.152,14.414-18.867,42.551-34.906,69.047a7.5,7.5,0,1,0,12.832,7.766A577.439,577.439,0,0,0,443.617,119.4c36.4,29.594,43.715,49.8,44.734,59.508,1.523,14.57-8.59,28.719-27.117,38.09H386.723q3.357-4.025,6.723-8.488a7.5,7.5,0,0,0-11.977-9.031A179.859,179.859,0,0,1,366.57,217H328.394c5.543-9.891,12.262-30.527,20.086-77.187,5.516-32.906,9.711-67.773,12.137-89.937,41.727,13.586,65.262,32.98,76.953,45.469ZM151.382,49.879c1.109,10.1,2.613,23.1,4.457,37.41a7.5,7.5,0,0,0,14.879-1.914c-2.437-18.926-4.277-35.523-5.391-46.121-.273-2.574-.5-4.777-.676-6.547,10.371-5.09,40.992-17.605,91.332-17.7,50.383.1,81.012,12.625,91.363,17.7-.18,1.773-.406,3.98-.676,6.559-2.156,20.563-6.707,60.644-12.984,98.074-10.582,63.113-18.617,73.9-20.836,75.711A28.934,28.934,0,0,1,305.785,217h-99.57a28.74,28.74,0,0,1-7.074-3.965c-2.586-2.109-11.969-15.27-24.035-96.012a7.5,7.5,0,0,0-14.836,2.215c9.422,63.039,17.648,87.48,23.285,97.762H145.445c-30.586-31.18-57.062-88.746-67.18-112.449-1.617-3.785-2.91-6.918-3.836-9.2,11.688-12.484,35.215-31.871,76.953-45.473ZM396,273H116a12.516,12.516,0,0,1-12.41-11h304.82A12.516,12.516,0,0,1,396,273Zm82.5-26H33.5a18.53,18.53,0,0,1-18.168-15H84a7.5,7.5,0,0,0,0-15H50.1c-18.113-9.336-27.973-23.48-26.441-38.09,1.012-9.711,8.324-29.91,44.711-59.5,22.254,50.258,42.613,80.348,56.938,97.59H116a7.5,7.5,0,1,0,0,15H496.667A18.53,18.53,0,0,1,478.5,247Zm0,0" fill="#fa4347"/>
    <path id="Path_6" data-name="Path 6" d="M226.031,57.211a7.5,7.5,0,1,0,10.605-10.605l-6-6a7.5,7.5,0,1,0-10.605,10.605Zm0,0" fill="#fa4347"/>
    <path id="Path_7" data-name="Path 7" d="M306.66,59.1a7.49,7.49,0,0,0,9.324-5.055l2.414-8.137a7.5,7.5,0,0,0-14.383-4.266L301.6,49.773A7.5,7.5,0,0,0,306.66,59.1Zm0,0" fill="#fa4347"/>
    <path id="Path_8" data-name="Path 8" d="M269.121,60.18a7.5,7.5,0,0,0-9.961,3.652l-3.563,7.7a7.5,7.5,0,0,0,3.652,9.957,7.4,7.4,0,0,0,3.145.7,7.507,7.507,0,0,0,6.813-4.352l3.566-7.7a7.5,7.5,0,0,0-3.652-9.957Zm0,0" fill="#fa4347"/>
    <path id="Path_9" data-name="Path 9" d="M60.152,154.4A7.5,7.5,0,0,0,50.2,158.05l-3.566,7.7a7.5,7.5,0,1,0,13.609,6.309l3.566-7.7A7.5,7.5,0,0,0,60.152,154.4Zm0,0" fill="#fa4347"/>
    <path id="Path_10" data-name="Path 10" d="M393.359,120.691l7.234,4.438a7.5,7.5,0,0,0,7.844-12.785l-7.234-4.437a7.5,7.5,0,0,0-7.844,12.785Zm0,0" fill="#fa4347"/>
    <path id="Path_11" data-name="Path 11" d="M124.3,95.48a7.486,7.486,0,0,0,9.957-3.652l3.566-7.7a7.5,7.5,0,1,0-13.609-6.309l-3.566,7.7A7.5,7.5,0,0,0,124.3,95.48Zm0,0" fill="#fa4347"/>
    <path id="Path_12" data-name="Path 12" d="M370.859,95.48a7.486,7.486,0,0,0,9.957-3.652l3.566-7.7a7.5,7.5,0,1,0-13.609-6.309l-3.566,7.7A7.5,7.5,0,0,0,370.859,95.48Zm0,0" fill="#fa4347"/>
    <path id="Path_13" data-name="Path 13" d="M448.465,164.3a7.486,7.486,0,0,0,9.957-3.652l3.566-7.7a7.5,7.5,0,0,0-13.609-6.3l-3.566,7.7A7.5,7.5,0,0,0,448.465,164.3Zm0,0" fill="#fa4347"/>
    <path id="Path_14" data-name="Path 14" d="M188.836,65.676l8.2,2.16a7.5,7.5,0,0,0,3.82-14.508l-8.207-2.16a7.5,7.5,0,0,0-3.816,14.508Zm0,0" fill="#fa4347"/>
    <path id="Path_15" data-name="Path 15" d="M256.371,47.563c.086,0,.168,0,.254,0l8.48-.277a7.5,7.5,0,1,0-.5-15l-8.48.281a7.5,7.5,0,0,0,.242,15Zm0,0" fill="#fa4347"/>
    <path id="Path_16" data-name="Path 16" d="M102.813,113.465l7.078,4.684a7.5,7.5,0,1,0,8.277-12.512l-7.078-4.684a7.5,7.5,0,1,0-8.277,12.512Zm0,0" fill="#fa4347"/>
  </g>
</svg>
