<svg xmlns="http://www.w3.org/2000/svg" width="56.001" height="59.987" viewBox="0 0 56.001 59.987">
  <g id="cup-cake-pinky" transform="translate(-4 -2.013)">
    <path id="Path_1" data-name="Path 1" d="M19,39.938h2V56.063H19Z" transform="translate(-5.799 2.851) rotate(-7.125)" fill="#fa4347"/>
    <path id="Path_2" data-name="Path 2" d="M35.938,47H52.063v2H35.938Z" transform="translate(-9.087 85.707) rotate(-82.875)" fill="#fa4347"/>
    <path id="Path_3" data-name="Path 3" d="M4,29a9.014,9.014,0,0,0,6.39,8.611l3.361,21.845A2.984,2.984,0,0,0,16.716,62H47.284a2.984,2.984,0,0,0,2.965-2.544L53.61,37.611a8.993,8.993,0,0,0,1.907-16.389,24,24,0,0,0-47.034,0A8.958,8.958,0,0,0,4,29ZM48.272,59.152a.993.993,0,0,1-.988.848H16.716a.993.993,0,0,1-.988-.848L12.469,37.973c.177.01.352.027.531.027a9.018,9.018,0,0,0,6.5-2.786A8.973,8.973,0,0,0,32,35.7a8.973,8.973,0,0,0,12.5-.484A9.018,9.018,0,0,0,51,38c.179,0,.354-.017.531-.027ZM29,6a1,1,0,1,1-1-1A1,1,0,0,1,29,6ZM10.36,22.052A21.948,21.948,0,0,1,25.15,5.109,2.956,2.956,0,0,0,25,6a3,3,0,1,0,5.283-1.924C30.851,4.032,31.422,4,32,4A21.971,21.971,0,0,1,53.64,22.052a1,1,0,0,0,.529.713,7,7,0,1,1-8.857,10.3,1,1,0,0,0-1.624,0,6.982,6.982,0,0,1-10.938.55,1.03,1.03,0,0,0-1.5,0,6.982,6.982,0,0,1-10.938-.55,1.035,1.035,0,0,0-1.624,0,7,7,0,1,1-8.857-10.3,1,1,0,0,0,.529-.713Z" fill="#fa4347"/>
    <path id="Path_4" data-name="Path 4" d="M20,19a3,3,0,1,0-3-3A3,3,0,0,0,20,19Zm0-4a1,1,0,1,1-1,1A1,1,0,0,1,20,15Z" fill="#fa4347"/>
    <path id="Path_5" data-name="Path 5" d="M29,31a3,3,0,1,0-3-3,3,3,0,0,0,3,3Zm0-4a1,1,0,1,1-1,1A1,1,0,0,1,29,27Z" fill="#fa4347"/>
    <path id="Path_6" data-name="Path 6" d="M41,17a3,3,0,1,0-3-3A3,3,0,0,0,41,17Zm0-4a1,1,0,1,1-1,1A1,1,0,0,1,41,13Z" fill="#fa4347"/>
    <path id="Path_7" data-name="Path 7" d="M49,28a3,3,0,1,0-3-3,3,3,0,0,0,3,3Zm0-4a1,1,0,1,1-1,1A1,1,0,0,1,49,24Z" fill="#fa4347"/>
    <path id="Path_8" data-name="Path 8" d="M11,33a3,3,0,1,0-3-3A3,3,0,0,0,11,33Zm0-4a1,1,0,1,1-1,1A1,1,0,0,1,11,29Z" fill="#fa4347"/>
    <path id="Path_9" data-name="Path 9" d="M28.586,14h2.828v2H28.586Z" transform="translate(-1.82 25.607) rotate(-45)" fill="#fa4347"/>
    <path id="Path_10" data-name="Path 10" d="M37,21.586h2v2.828H37Z" transform="translate(-5.134 33.607) rotate(-45)" fill="#fa4347"/>
    <path id="Path_11" data-name="Path 11" d="M17.586,23h2.828v2H17.586Z" transform="translate(-11.406 20.464) rotate(-45)" fill="#fa4347"/>
    <path id="Path_12" data-name="Path 12" d="M51.586,30h2.828v2H51.586Z" transform="translate(-6.397 46.556) rotate(-45)" fill="#fa4347"/>
    <path id="Path_13" data-name="Path 13" d="M31,39h2V57H31Z" fill="#fa4347"/>
  </g>
</svg>
