<svg id="donut-dark" xmlns="http://www.w3.org/2000/svg" width="512" height="512" viewBox="0 0 512 512">
  <g id="Group_2" data-name="Group 2">
    <g id="Group_1" data-name="Group 1">
      <circle id="Ellipse_1" data-name="Ellipse 1" cx="10.497" cy="10.497" r="10.497" transform="translate(355.943 144.043)" fill="#6e0608"/>
      <circle id="Ellipse_2" data-name="Ellipse 2" cx="10.496" cy="10.496" r="10.496" transform="translate(93.114 135.184)" fill="#6e0608"/>
      <circle id="Ellipse_3" data-name="Ellipse 3" cx="10.497" cy="10.497" r="10.497" transform="translate(47.784 282.443)" fill="#6e0608"/>
      <circle id="Ellipse_4" data-name="Ellipse 4" cx="10.497" cy="10.497" r="10.497" transform="translate(235.003 68.193)" fill="#6e0608"/>
      <circle id="Ellipse_5" data-name="Ellipse 5" cx="10.498" cy="10.498" r="10.498" transform="translate(376.942 329.542)" fill="#6e0608"/>
      <circle id="Ellipse_6" data-name="Ellipse 6" cx="10.499" cy="10.499" r="10.499" transform="translate(162.061 365.231)" fill="#6e0608"/>
      <circle id="Ellipse_7" data-name="Ellipse 7" cx="10.497" cy="10.497" r="10.497" transform="translate(427.063 210.143)" fill="#6e0608"/>
      <path id="Path_17" data-name="Path 17" d="M387.669,216.749l-14.586-6.85a8.085,8.085,0,1,0-6.871,14.637l14.585,6.848a8.084,8.084,0,1,0,6.872-14.635Z" fill="#6e0608"/>
      <path id="Path_18" data-name="Path 18" d="M73.321,210.615,87.9,217.463a8.084,8.084,0,0,0,6.873-14.634l-14.586-6.85a8.084,8.084,0,1,0-6.871,14.636Z" fill="#6e0608"/>
      <path id="Path_19" data-name="Path 19" d="M317.68,79.16l14.586,6.848a8.083,8.083,0,1,0,6.871-14.634l-14.586-6.849A8.084,8.084,0,1,0,317.68,79.16Z" fill="#6e0608"/>
      <path id="Path_20" data-name="Path 20" d="M172.792,141.94l-14.585-6.849a8.085,8.085,0,0,0-6.871,14.637l14.585,6.847a8.084,8.084,0,1,0,6.871-14.635Z" fill="#6e0608"/>
      <path id="Path_21" data-name="Path 21" d="M355.872,317.4a8.08,8.08,0,0,0,11.113,2.684l13.749-8.4a8.084,8.084,0,0,0-8.426-13.8l-13.749,8.4A8.085,8.085,0,0,0,355.872,317.4Z" fill="#6e0608"/>
      <path id="Path_22" data-name="Path 22" d="M77.6,337.569a8.042,8.042,0,0,0,4.207-1.187l13.75-8.4a8.084,8.084,0,1,0-8.426-13.8l-13.751,8.4a8.085,8.085,0,0,0,4.22,14.984Z" fill="#6e0608"/>
      <path id="Path_23" data-name="Path 23" d="M437.02,74.979A256,256,0,0,0,0,256q0,3.037.074,6.066c.026,1.14.076,2.276.117,3.413.031.828.052,1.656.091,2.483.075,1.635.174,3.266.279,4.9.018.272.031.544.05.816A256.08,256.08,0,0,0,380.751,479.6a8.085,8.085,0,1,0-7.891-14.113,239.726,239.726,0,0,1-290-43.7l15.723-10.215c.024-.015.051-.032.074-.049,11.785-7.609,22.031-3.288,26.036-.964l38.194,24.816c.1.067.209.133.315.194a41.909,41.909,0,0,0,17.139,5.534l.082.007c.46.045.925.078,1.383.105.2.012.39.02.584.025.326.017.651.027.942.031.514.011,1.063.011,1.5,0,.332-.005.661-.016.989-.032.192-.006.385-.014.564-.025q.7-.041,1.39-.1l.091-.008a41.965,41.965,0,0,0,16.357-5.1c1.022-.5,2.021-1.03,2.968-1.586.106-.063.211-.127.314-.193l34.871-22.658a25.135,25.135,0,0,1,13.537-4.367h.1a25.087,25.087,0,0,1,13.448,4.27L275,415.438a8.084,8.084,0,1,0,9.415-13.144l-5.611-4.02q-.184-.133-.373-.256a41.156,41.156,0,0,0-22.17-6.979c-.151-.005-.3-.005-.482,0a41.078,41.078,0,0,0-22.211,6.98l-34.7,22.547c-.594.344-1.223.675-1.873.985-.164.079-.326.165-.486.255a26.129,26.129,0,0,1-10.094,3.2l-.144.015c-.274.027-.555.046-.85.063l-.167.006-.139.006c-.176.009-.354.016-.574.02l-.431,0-.475,0c-.178,0-.356-.01-.534-.019-.045,0-.092-.005-.136-.006l-.18-.007c-.283-.016-.563-.034-.837-.062-.047-.006-.092-.011-.139-.014a26.054,26.054,0,0,1-10.273-3.292L133.345,396.9c-.1-.063-.2-.124-.3-.183a40.537,40.537,0,0,0-43.272,1.3l-.079.051L71.954,409.594a240.057,240.057,0,0,1-38.981-65.388c-.07-.176-.142-.352-.211-.529-.577-1.465-1.134-2.94-1.683-4.418-.138-.373-.283-.743-.419-1.117-.443-1.212-.866-2.434-1.29-3.655q-1.89-5.457-3.522-11c-.059-.2-.121-.4-.179-.6q-.648-2.23-1.25-4.477c-.055-.206-.112-.411-.167-.617q-.606-2.275-1.168-4.563-.063-.254-.124-.507-.574-2.363-1.1-4.739l-.045-.208a239.678,239.678,0,0,1-4.091-24.553c-.053-.467-.11-.932-.161-1.4-.129-1.191-.242-2.385-.353-3.579q-.1-1.1-.2-2.206-.132-1.57-.241-3.144-.1-1.389-.177-2.784c-.054-.913-.107-1.825-.15-2.74-.054-1.16-.095-2.323-.133-3.487-.023-.718-.054-1.435-.071-2.153-.045-1.906-.073-3.816-.073-5.732C16.169,123.757,123.758,16.168,256,16.168S495.833,123.757,495.833,256c0,2.182-.04,4.359-.1,6.533-.015.554-.036,1.107-.054,1.66q-.1,2.769-.252,5.53c-.019.336-.034.672-.055,1.008A240.591,240.591,0,0,1,440.08,409.619L422.3,398.071c-.027-.019-.055-.037-.082-.054a40.536,40.536,0,0,0-43.272-1.3c-.1.059-.2.119-.3.183l-38.186,24.811a26.022,26.022,0,0,1-10.271,3.292c-.046,0-.092.008-.139.013-.275.027-.551.045-.854.063l-.166.006-.135.006c-.176.009-.354.016-.574.02l-.433,0-.473,0c-.181,0-.358-.01-.534-.019-.046,0-.1-.005-.141-.006l-.176-.007c-.281-.016-.561-.034-.836-.062-.051-.006-.1-.011-.149-.015a26.2,26.2,0,0,1-10.093-3.2c-.156-.089-.318-.175-.482-.254-.645-.308-1.274-.639-1.874-.986l-5.055-3.282a8.084,8.084,0,1,0-8.809,13.557l5.222,3.393c.1.066.207.13.313.193.953.559,1.95,1.093,2.967,1.588a42.07,42.07,0,0,0,16.357,5.1l.1.008c.457.045.916.077,1.363.1.194.013.391.021.59.026.326.017.65.027.943.031.257.006.515.008.769.008s.511,0,.729-.007c.331-.005.657-.016.983-.032.2-.006.395-.014.564-.024.477-.028.94-.062,1.4-.106l.08-.007a41.881,41.881,0,0,0,17.142-5.535c.105-.062.209-.126.313-.193l38.2-24.817c4-2.323,14.246-6.645,26.031.963.025.018.051.035.076.051l15.782,10.253a239.281,239.281,0,0,1-33.8,29.358,8.084,8.084,0,1,0,9.408,13.148A257.53,257.53,0,0,0,447.159,426.2c.188-.175.37-.359.543-.555.4-.456.793-.921,1.194-1.379l.239-.276q2.256-2.592,4.431-5.231c.146-.177.293-.353.438-.53q4.536-5.532,8.747-11.28c.354-.484.7-.976,1.049-1.462q1.356-1.884,2.68-3.786.936-1.348,1.852-2.709.785-1.164,1.554-2.337c4.632-7.018,8.938-14.247,12.847-21.683a253.6,253.6,0,0,0,18.218-44.523l.054-.18q1.524-5.047,2.842-10.156.238-.922.469-1.847.379-1.521.74-3.046.434-1.822.838-3.653c.162-.732.325-1.465.481-2.2q.307-1.443.6-2.891c.1-.515.2-1.03.3-1.546q.54-2.778,1.019-5.57c.069-.4.14-.8.207-1.2q.266-1.592.51-3.188c.07-.452.135-.9.2-1.357q.4-2.678.738-5.366c.073-.575.148-1.15.217-1.726q.17-1.416.323-2.834c.086-.787.164-1.574.243-2.362q.178-1.8.334-3.607.133-1.568.25-3.136.076-1.049.144-2.1.129-2,.228-4c.021-.423.043-.846.061-1.27q.1-2.319.159-4.642.018-.708.032-1.417c.035-1.718.059-3.437.059-5.156A254.326,254.326,0,0,0,437.02,74.979Z" fill="#6e0608"/>
      <path id="Path_24" data-name="Path 24" d="M256,355.152A99.15,99.15,0,1,0,156.851,256,99.263,99.263,0,0,0,256,355.152Zm0-182.132A82.981,82.981,0,1,1,173.019,256,83.074,83.074,0,0,1,256,173.02Z" fill="#6e0608"/>
      <path id="Path_25" data-name="Path 25" d="M414.534,270.108a22.917,22.917,0,1,0,16.2-6.71A22.939,22.939,0,0,0,414.534,270.108Zm20.971,20.974a6.746,6.746,0,1,1,0-9.54A6.708,6.708,0,0,1,435.505,291.082Z" fill="#6e0608"/>
      <path id="Path_26" data-name="Path 26" d="M281.463,99.6a22.913,22.913,0,1,0,16.2-6.71A22.76,22.76,0,0,0,281.463,99.6Zm22.946,16.2a6.748,6.748,0,1,1-1.977-4.77A6.7,6.7,0,0,1,304.409,115.805Z" fill="#6e0608"/>
      <path id="Path_27" data-name="Path 27" d="M415.917,137.75a22.913,22.913,0,1,0,16.2,6.71A22.767,22.767,0,0,0,415.917,137.75Zm4.768,27.684a6.747,6.747,0,1,1,0-9.54A6.7,6.7,0,0,1,420.685,165.434Z" fill="#6e0608"/>
      <path id="Path_28" data-name="Path 28" d="M197.888,123.89a22.913,22.913,0,1,0-16.2-6.711A22.773,22.773,0,0,0,197.888,123.89Zm-4.771-27.683a6.742,6.742,0,1,1-1.976,4.768A6.7,6.7,0,0,1,193.117,96.207Z" fill="#6e0608"/>
      <path id="Path_29" data-name="Path 29" d="M335.7,342.318a22.913,22.913,0,1,0,16.2,6.71A22.767,22.767,0,0,0,335.7,342.318ZM340.471,370a6.746,6.746,0,1,1,0-9.539A6.7,6.7,0,0,1,340.471,370Z" fill="#6e0608"/>
      <path id="Path_30" data-name="Path 30" d="M119.81,283.812a22.913,22.913,0,1,0-16.2,6.711A22.938,22.938,0,0,0,119.81,283.812ZM98.838,272.378a6.74,6.74,0,1,1,4.771,1.977A6.754,6.754,0,0,1,98.838,272.378Z" fill="#6e0608"/>
      <path id="Path_31" data-name="Path 31" d="M139.839,362.961a22.915,22.915,0,1,0-16.2-6.712A22.772,22.772,0,0,0,139.839,362.961Zm-4.769-27.685a6.746,6.746,0,1,1,0,9.539A6.7,6.7,0,0,1,135.07,335.276Z" fill="#6e0608"/>
    </g>
  </g>
</svg>
