<svg xmlns="http://www.w3.org/2000/svg" width="236.247" height="512.001" viewBox="0 0 236.247 512.001">
  <path id="ice-cream" d="M233.582,169.016c-4.711-14.625-17.113-24.2-34.59-27.02a48.849,48.849,0,0,0,3.8-36.855c-7.2-25-31.113-25.32-44.113-25.43,5.488-10.566,10.879-27.254,7.063-43.867-2.625-11.426-11.1-26.391-36.551-32.785C114-.758,97.953-.187,89.742.492a8.461,8.461,0,0,0-7.715,7.4,8.325,8.325,0,0,0,5.8,8.93c5.9,1.906,13.352,5.965,15.328,14.445,2.4,10.313-1.02,24.859-49.234,46C37.6,84.43,27.613,94.539,24.242,107.317c-3.973,15.043,2.3,29.848,8.5,39.855a53.82,53.82,0,0,0-16.273,7.578C6.09,162.051.566,172.27.5,184.305c-.082,14.98,4.9,24.973,10.812,31.555a13.109,13.109,0,0,0-1.48,6.051v9.723A38.691,38.691,0,0,0,38.3,268.895l10.688,39.848s0,0,0,.008l34.941,130.3s0,.008,0,.016l15.75,58.723a19.186,19.186,0,0,0,37.063,0l61.387-228.887A38.69,38.69,0,0,0,226.6,231.633V221.91a13.1,13.1,0,0,0-1.387-5.855c8.559-8.672,15.969-23.461,8.367-47.039ZM122.258,493.9a4.185,4.185,0,0,1-8.082,0l-11.719-43.7c9.387,3.945,18.922,7.672,28.535,11.129Zm25.273-94.246c-2.223-.824-4.441-1.656-6.625-2.5a7.5,7.5,0,1,0-5.387,14c2.672,1.027,5.387,2.043,8.113,3.039l-8.738,32.586c-12.668-4.59-25.2-9.645-37.395-15.078L86.086,389.145c5.4,2.754,10.863,5.418,16.332,7.969a7.5,7.5,0,1,0,6.336-13.6c-9.441-4.4-18.828-9.156-27.969-14.133L68.617,324.008a469.319,469.319,0,0,0,87.547,43.473Zm12.531-46.727a451.8,451.8,0,0,1-97.316-50.8L54.2,270.262H73.34A418.293,418.293,0,0,0,168.547,321.3Zm12.391-46.2a407.208,407.208,0,0,1-72.379-36.465h82.16Zm38.4-98.027H84.391a7.5,7.5,0,1,0,0,15H211.6v7.93a23.653,23.653,0,0,1-20.477,23.406s-.008,0-.012,0c-.527.066-1.051.121-1.562.156-.016,0-.035,0-.051,0-.52.035-1.027.051-1.52.051H48.46c-.5,0-1-.016-1.523-.051-.016,0-.031,0-.051,0-.512-.035-1.031-.086-1.559-.156-.008,0-.012,0-.016,0a23.653,23.653,0,0,1-20.477-23.406V223.7H49.242a7.5,7.5,0,1,0,0-15H25.5c-6.7-5.348-10.059-13.516-10-24.312.094-17.105,19.445-23.031,26.211-23.758a9.165,9.165,0,0,0,.926-.16A116.313,116.313,0,0,0,51.777,170.7,7.5,7.5,0,0,0,62.05,159.758c-4.078-3.832-11.7-13.625-14.4-17.215-4.609-6.641-12-19.668-8.9-31.4,2.145-8.133,9.277-14.906,21.2-20.133,30.641-13.437,64.9-32.758,57.82-63.152a31.612,31.612,0,0,0-5.926-12.453c16.273,1.363,35.352,6.711,39.277,23.8,3.18,13.844-2.523,28.008-6.75,35.422-2.9,4.8-12.355,17.961-22.016,22.445a7.5,7.5,0,1,0,6.32,13.609c7.879-3.656,14.844-10.449,19.93-16.484.207.039.41.094.621.117a80.627,80.627,0,0,0,9.133.4c15.152.129,26.176,1.246,30.02,14.582a34.228,34.228,0,0,1-3.035,26.34,139.069,139.069,0,0,1-21.324,22.582,7.5,7.5,0,1,0,9.516,11.6A139.18,139.18,0,0,0,188.019,155.9a10.87,10.87,0,0,0,1.992.27c10.93.406,24.883,3.762,29.293,17.445,5.078,15.766,2.316,27.266-8.449,35.082Zm0,0" transform="translate(-0.499 0)" fill="#fa4347"/>
</svg>
