<svg xmlns="http://www.w3.org/2000/svg" width="512" height="349.774" viewBox="0 0 512 349.774">
  <g id="macaron-dark" transform="translate(0 -81.113)">
    <g id="Group_4" data-name="Group 4">
      <g id="Group_3" data-name="Group 3">
        <path id="Path_32" data-name="Path 32" d="M191.2,143.7a7.5,7.5,0,0,0,7.5-7.5V124.808a7.5,7.5,0,0,0-15,0V136.2A7.5,7.5,0,0,0,191.2,143.7Z" fill="#6e0608"/>
        <path id="Path_33" data-name="Path 33" d="M320.8,143.7a7.5,7.5,0,0,0,7.5-7.5V124.808a7.5,7.5,0,0,0-15,0V136.2A7.5,7.5,0,0,0,320.8,143.7Z" fill="#6e0608"/>
        <path id="Path_34" data-name="Path 34" d="M200.159,149.5H182.233a7.5,7.5,0,0,0,0,15h17.926a7.5,7.5,0,0,0,0-15Z" fill="#6e0608"/>
        <path id="Path_35" data-name="Path 35" d="M329.767,149.5H311.841a7.5,7.5,0,0,0,0,15h17.926a7.5,7.5,0,0,0,0-15Z" fill="#6e0608"/>
        <path id="Path_36" data-name="Path 36" d="M276.931,128.7a7.5,7.5,0,0,0-7.5,7.5,2.965,2.965,0,0,1-5.931,0,7.5,7.5,0,0,0-15,0,2.965,2.965,0,0,1-5.931,0,7.5,7.5,0,0,0-15,0A17.957,17.957,0,0,0,256,150.795,17.957,17.957,0,0,0,284.431,136.2,7.5,7.5,0,0,0,276.931,128.7Z" fill="#6e0608"/>
        <path id="Path_37" data-name="Path 37" d="M490.829,283.341a32.53,32.53,0,0,0,6.006-18.858V247.517a32.533,32.533,0,0,0-6.006-18.859C504.112,225.509,512,215.977,512,202.233c0-24.32-25.131-54.656-64.023-77.284C413.6,104.952,352.4,81.113,256,81.113S98.4,104.952,64.023,124.949C25.131,147.577,0,177.913,0,202.233c0,13.744,7.888,23.276,21.171,26.425a32.531,32.531,0,0,0-6.006,18.859v16.966a32.527,32.527,0,0,0,6.006,18.858C7.888,286.491,0,296.023,0,309.767c0,24.32,25.131,54.656,64.023,77.284,34.372,20,95.58,43.836,191.977,43.836s157.6-23.838,191.977-43.836C486.869,364.423,512,334.087,512,309.767,512,296.023,504.112,286.491,490.829,283.341ZM71.566,137.915c59.384-34.55,133.074-41.8,184.434-41.8,93.053,0,151.656,22.732,184.434,41.8,17.277,10.052,35.379,24.543,46.319,39.3H25.247C36.188,162.457,54.29,147.966,71.566,137.915ZM15,202.233a30.065,30.065,0,0,1,1.885-10.016h478.23A30.065,30.065,0,0,1,497,202.233c0,8.336-5.548,12.563-16.489,12.563H31.489C20.548,214.8,15,210.569,15,202.233Zm466.835,45.284v16.966A17.741,17.741,0,0,1,464.114,282.2H47.886a17.742,17.742,0,0,1-17.721-17.721V247.517A17.741,17.741,0,0,1,47.886,229.8H464.115A17.741,17.741,0,0,1,481.835,247.517Zm-41.4,126.568c-59.384,34.55-133.074,41.8-184.434,41.8-93.053,0-151.656-22.732-184.434-41.8-17.277-10.052-35.378-24.543-46.319-39.3H486.752C475.812,349.543,457.71,364.034,440.434,374.085Zm54.681-54.3H16.885A30.055,30.055,0,0,1,15,309.767c0-8.336,5.548-12.563,16.489-12.563H480.51c10.941,0,16.489,4.227,16.489,12.563A30.028,30.028,0,0,1,495.115,319.782Z" fill="#6e0608"/>
      </g>
    </g>
  </g>
</svg>
